<?xml version="1.0" encoding="UTF-8" standalone="no"?>
<!-- Created with Inkscape (http://www.inkscape.org/) -->

<svg
   width="210mm"
   height="297mm"
   viewBox="0 0 210 297"
   version="1.1"
   id="svg1"
   inkscape:export-filename="sector_map_targeting_reticle.png"
   inkscape:export-xdpi="300"
   inkscape:export-ydpi="300"
   inkscape:version="1.3 (0e150ed, 2023-07-21)"
   sodipodi:docname="sector_map_targeting_reticle.svg"
   xmlns:inkscape="http://www.inkscape.org/namespaces/inkscape"
   xmlns:sodipodi="http://sodipodi.sourceforge.net/DTD/sodipodi-0.dtd"
   xmlns:xlink="http://www.w3.org/1999/xlink"
   xmlns="http://www.w3.org/2000/svg"
   xmlns:svg="http://www.w3.org/2000/svg">
  <sodipodi:namedview
     id="namedview1"
     pagecolor="#ffffff"
     bordercolor="#000000"
     borderopacity="0.25"
     inkscape:showpageshadow="2"
     inkscape:pageopacity="0.0"
     inkscape:pagecheckerboard="0"
     inkscape:deskcolor="#d1d1d1"
     inkscape:document-units="mm"
     inkscape:zoom="1.0406944"
     inkscape:cx="331.50941"
     inkscape:cy="397.81129"
     inkscape:window-width="1728"
     inkscape:window-height="1051"
     inkscape:window-x="0"
     inkscape:window-y="38"
     inkscape:window-maximized="0"
     inkscape:current-layer="layer1" />
  <defs
     id="defs1">
    <filter
       inkscape:collect="always"
       style="color-interpolation-filters:sRGB"
       id="filter33"
       x="-0.05486498"
       y="-0.072289995"
       width="1.10973"
       height="1.1444498">
      <feGaussianBlur
         inkscape:collect="always"
         stdDeviation="0.95279608"
         id="feGaussianBlur33" />
    </filter>
    <filter
       inkscape:collect="always"
       style="color-interpolation-filters:sRGB"
       id="filter85"
       x="-0.089051742"
       y="-0.092416657"
       width="1.1781035"
       height="1.1848333">
      <feGaussianBlur
         inkscape:collect="always"
         stdDeviation="1.6538697"
         id="feGaussianBlur85" />
    </filter>
    <radialGradient
       inkscape:collect="always"
       xlink:href="#linearGradient50"
       id="radialGradient51"
       cx="49.897839"
       cy="146.69757"
       fx="49.897839"
       fy="146.69757"
       r="9.1677752"
       gradientTransform="matrix(0.8894962,0,0,0.8894962,5.5139005,16.210675)"
       gradientUnits="userSpaceOnUse" />
    <linearGradient
       id="linearGradient50"
       inkscape:collect="always">
      <stop
         style="stop-color:#ffffff;stop-opacity:1;"
         offset="0"
         id="stop50" />
      <stop
         style="stop-color:#ffffff;stop-opacity:0;"
         offset="1"
         id="stop51" />
    </linearGradient>
    <filter
       inkscape:collect="always"
       style="color-interpolation-filters:sRGB"
       id="filter51"
       x="-0.017593194"
       y="-0.017593209"
       width="1.0351864"
       height="1.0351864">
      <feGaussianBlur
         inkscape:collect="always"
         stdDeviation="0.059660561"
         id="feGaussianBlur51" />
    </filter>
  </defs>
  <g
     inkscape:label="Layer 1"
     inkscape:groupmode="layer"
     id="layer1">
    <rect
       style="fill:#000000;fill-opacity:1;stroke:none;stroke-width:3;stroke-linecap:square"
       id="rect1"
       width="113.91305"
       height="274.17392"
       x="0"
       y="22.826088"
       inkscape:label="background"
       sodipodi:insensitive="true" />
    <g
       id="g22">
      <circle
         style="opacity:1;fill:#000000;fill-opacity:0;stroke:#5f8dff;stroke-width:1.5;stroke-linecap:butt;stroke-dasharray:none;stroke-opacity:1"
         id="path3"
         transform="rotate(-45)"
         cx="-23.712631"
         cy="94.27977"
         r="12.824402" />
      <g
         id="g7"
         transform="rotate(-27.594213,49.73286,83.469804)">
        <path
           style="opacity:1;fill:#000000;fill-opacity:0;stroke:#5f8dff;stroke-width:1.5;stroke-linecap:square;stroke-dasharray:none;stroke-opacity:1"
           id="path1"
           sodipodi:type="arc"
           sodipodi:cx="-23.712631"
           sodipodi:cy="94.27977"
           sodipodi:rx="21.40641"
           sodipodi:ry="21.40641"
           sodipodi:start="0"
           sodipodi:end="2.5544728"
           sodipodi:open="true"
           sodipodi:arc-type="arc"
           d="m -2.306221,94.27977 a 21.40641,21.40641 0 0 1 -15.212215,20.49064 21.40641,21.40641 0 0 1 -24.01588,-8.63223"
           transform="rotate(-45)" />
        <path
           style="opacity:1;fill:#000000;fill-opacity:0;stroke:#5f8dff;stroke-width:1.5;stroke-linecap:square;stroke-dasharray:none;stroke-opacity:1"
           id="path2"
           sodipodi:type="arc"
           sodipodi:cx="23.998611"
           sodipodi:cy="-94.097244"
           sodipodi:rx="21.40641"
           sodipodi:ry="21.40641"
           sodipodi:start="0"
           sodipodi:end="2.5544728"
           sodipodi:open="true"
           sodipodi:arc-type="arc"
           d="M 45.405022,-94.097244 A 21.40641,21.40641 0 0 1 30.192806,-73.606604 21.40641,21.40641 0 0 1 6.1769266,-82.238832"
           transform="rotate(135)" />
        <path
           id="path4"
           style="color:#000000;fill:#5f8dff;-inkscape-stroke:none"
           d="m 53.046891,62.382756 -0.574642,3.093351 a 18.186964,18.186964 0 0 1 1.481047,0.241329 l 0.568441,-3.061312 z m 11.457182,5.382617 -2.314587,2.314587 a 18.186964,18.186964 0 0 1 0.568957,0.492993 18.186964,18.186964 0 0 1 0.517798,0.543636 l 2.2903,-2.290299 z" />
        <path
           id="path5"
           style="color:#000000;fill:#5f8dff;-inkscape-stroke:none"
           d="m 36.445321,95.609151 -2.540931,2.498039 1.052649,1.070736 2.534729,-2.491838 a 18.186964,18.186964 0 0 1 -0.453202,-0.392741 18.186964,18.186964 0 0 1 -0.593245,-0.684196 z m 9.144661,5.465819 -0.642855,3.19825 1.470712,0.29507 0.645955,-3.2153 a 18.186964,18.186964 0 0 1 -1.473812,-0.27802 z" />
      </g>
      <path
         style="opacity:1;fill:none;fill-opacity:1;stroke:#5f8dff;stroke-width:3;stroke-linecap:square;stroke-dasharray:none;stroke-opacity:1"
         d="M 43.798478,83.433226 H 15.223501"
         id="path7" />
      <path
         style="opacity:1;fill:none;fill-opacity:1;stroke:#5f8dff;stroke-width:3;stroke-linecap:square;stroke-dasharray:none;stroke-opacity:1"
         d="M 84.24222,83.433226 H 55.667243"
         id="path8" />
      <circle
         style="opacity:1;fill:#000000;fill-opacity:0;stroke:#5f8dff;stroke-width:1.5;stroke-linecap:butt;stroke-dasharray:none;stroke-opacity:1"
         id="circle8"
         transform="rotate(-45)"
         cx="-23.712631"
         cy="94.27977"
         r="12.824402" />
      <g
         id="g12"
         transform="rotate(-27.594213,49.73286,83.469804)">
        <path
           style="opacity:1;fill:#000000;fill-opacity:0;stroke:#5f8dff;stroke-width:1.5;stroke-linecap:square;stroke-dasharray:none;stroke-opacity:1"
           id="path9"
           sodipodi:type="arc"
           sodipodi:cx="-23.712631"
           sodipodi:cy="94.27977"
           sodipodi:rx="21.40641"
           sodipodi:ry="21.40641"
           sodipodi:start="0"
           sodipodi:end="2.5544728"
           sodipodi:open="true"
           sodipodi:arc-type="arc"
           d="m -2.306221,94.27977 a 21.40641,21.40641 0 0 1 -15.212215,20.49064 21.40641,21.40641 0 0 1 -24.01588,-8.63223"
           transform="rotate(-45)" />
        <path
           style="opacity:1;fill:#000000;fill-opacity:0;stroke:#5f8dff;stroke-width:1.5;stroke-linecap:square;stroke-dasharray:none;stroke-opacity:1"
           id="path10"
           sodipodi:type="arc"
           sodipodi:cx="23.998611"
           sodipodi:cy="-94.097244"
           sodipodi:rx="21.40641"
           sodipodi:ry="21.40641"
           sodipodi:start="0"
           sodipodi:end="2.5544728"
           sodipodi:open="true"
           sodipodi:arc-type="arc"
           d="M 45.405022,-94.097244 A 21.40641,21.40641 0 0 1 30.192806,-73.606604 21.40641,21.40641 0 0 1 6.1769266,-82.238832"
           transform="rotate(135)" />
        <path
           id="path11"
           style="color:#000000;fill:#5f8dff;-inkscape-stroke:none"
           d="m 53.046891,62.382756 -0.574642,3.093351 a 18.186964,18.186964 0 0 1 1.481047,0.241329 l 0.568441,-3.061312 z m 11.457182,5.382617 -2.314587,2.314587 a 18.186964,18.186964 0 0 1 0.568957,0.492993 18.186964,18.186964 0 0 1 0.517798,0.543636 l 2.2903,-2.290299 z" />
        <path
           id="path12"
           style="color:#000000;fill:#5f8dff;-inkscape-stroke:none"
           d="m 36.445321,95.609151 -2.540931,2.498039 1.052649,1.070736 2.534729,-2.491838 a 18.186964,18.186964 0 0 1 -0.453202,-0.392741 18.186964,18.186964 0 0 1 -0.593245,-0.684196 z m 9.144661,5.465819 -0.642855,3.19825 1.470712,0.29507 0.645955,-3.2153 a 18.186964,18.186964 0 0 1 -1.473812,-0.27802 z" />
      </g>
      <path
         style="opacity:1;fill:none;fill-opacity:1;stroke:#5f8dff;stroke-width:3;stroke-linecap:square;stroke-dasharray:none;stroke-opacity:1"
         d="M 43.798478,83.433226 H 15.223501"
         id="path13" />
      <path
         style="opacity:1;fill:none;fill-opacity:1;stroke:#5f8dff;stroke-width:3;stroke-linecap:square;stroke-dasharray:none;stroke-opacity:1"
         d="M 84.24222,83.433226 H 55.667243"
         id="path14" />
    </g>
    <g
       id="g33"
       style="filter:url(#filter33)">
      <circle
         style="opacity:1;fill:#000000;fill-opacity:0;stroke:#5f8dff;stroke-width:1.5;stroke-linecap:butt;stroke-dasharray:none;stroke-opacity:1"
         id="circle22"
         transform="rotate(-45)"
         cx="-23.712631"
         cy="94.27977"
         r="12.824402" />
      <g
         id="g25"
         transform="rotate(-27.594213,49.73286,83.469804)">
        <path
           style="opacity:1;fill:#000000;fill-opacity:0;stroke:#5f8dff;stroke-width:1.5;stroke-linecap:square;stroke-dasharray:none;stroke-opacity:1"
           id="path22"
           sodipodi:type="arc"
           sodipodi:cx="-23.712631"
           sodipodi:cy="94.27977"
           sodipodi:rx="21.40641"
           sodipodi:ry="21.40641"
           sodipodi:start="0"
           sodipodi:end="2.5544728"
           sodipodi:open="true"
           sodipodi:arc-type="arc"
           d="m -2.306221,94.27977 a 21.40641,21.40641 0 0 1 -15.212215,20.49064 21.40641,21.40641 0 0 1 -24.01588,-8.63223"
           transform="rotate(-45)" />
        <path
           style="opacity:1;fill:#000000;fill-opacity:0;stroke:#5f8dff;stroke-width:1.5;stroke-linecap:square;stroke-dasharray:none;stroke-opacity:1"
           id="path23"
           sodipodi:type="arc"
           sodipodi:cx="23.998611"
           sodipodi:cy="-94.097244"
           sodipodi:rx="21.40641"
           sodipodi:ry="21.40641"
           sodipodi:start="0"
           sodipodi:end="2.5544728"
           sodipodi:open="true"
           sodipodi:arc-type="arc"
           d="M 45.405022,-94.097244 A 21.40641,21.40641 0 0 1 30.192806,-73.606604 21.40641,21.40641 0 0 1 6.1769266,-82.238832"
           transform="rotate(135)" />
        <path
           id="path24"
           style="color:#000000;fill:#5f8dff;-inkscape-stroke:none"
           d="m 53.046891,62.382756 -0.574642,3.093351 a 18.186964,18.186964 0 0 1 1.481047,0.241329 l 0.568441,-3.061312 z m 11.457182,5.382617 -2.314587,2.314587 a 18.186964,18.186964 0 0 1 0.568957,0.492993 18.186964,18.186964 0 0 1 0.517798,0.543636 l 2.2903,-2.290299 z" />
        <path
           id="path25"
           style="color:#000000;fill:#5f8dff;-inkscape-stroke:none"
           d="m 36.445321,95.609151 -2.540931,2.498039 1.052649,1.070736 2.534729,-2.491838 a 18.186964,18.186964 0 0 1 -0.453202,-0.392741 18.186964,18.186964 0 0 1 -0.593245,-0.684196 z m 9.144661,5.465819 -0.642855,3.19825 1.470712,0.29507 0.645955,-3.2153 a 18.186964,18.186964 0 0 1 -1.473812,-0.27802 z" />
      </g>
      <path
         style="opacity:1;fill:none;fill-opacity:1;stroke:#5f8dff;stroke-width:3;stroke-linecap:square;stroke-dasharray:none;stroke-opacity:1"
         d="M 43.798478,83.433226 H 15.223501"
         id="path26" />
      <path
         style="opacity:1;fill:none;fill-opacity:1;stroke:#5f8dff;stroke-width:3;stroke-linecap:square;stroke-dasharray:none;stroke-opacity:1"
         d="M 84.24222,83.433226 H 55.667243"
         id="path27" />
      <circle
         style="opacity:1;fill:#000000;fill-opacity:0;stroke:#5f8dff;stroke-width:1.5;stroke-linecap:butt;stroke-dasharray:none;stroke-opacity:1"
         id="circle27"
         transform="rotate(-45)"
         cx="-23.712631"
         cy="94.27977"
         r="12.824402" />
      <g
         id="g31"
         transform="rotate(-27.594213,49.73286,83.469804)">
        <path
           style="opacity:1;fill:#000000;fill-opacity:0;stroke:#5f8dff;stroke-width:1.5;stroke-linecap:square;stroke-dasharray:none;stroke-opacity:1"
           id="path28"
           sodipodi:type="arc"
           sodipodi:cx="-23.712631"
           sodipodi:cy="94.27977"
           sodipodi:rx="21.40641"
           sodipodi:ry="21.40641"
           sodipodi:start="0"
           sodipodi:end="2.5544728"
           sodipodi:open="true"
           sodipodi:arc-type="arc"
           d="m -2.306221,94.27977 a 21.40641,21.40641 0 0 1 -15.212215,20.49064 21.40641,21.40641 0 0 1 -24.01588,-8.63223"
           transform="rotate(-45)" />
        <path
           style="opacity:1;fill:#000000;fill-opacity:0;stroke:#5f8dff;stroke-width:1.5;stroke-linecap:square;stroke-dasharray:none;stroke-opacity:1"
           id="path29"
           sodipodi:type="arc"
           sodipodi:cx="23.998611"
           sodipodi:cy="-94.097244"
           sodipodi:rx="21.40641"
           sodipodi:ry="21.40641"
           sodipodi:start="0"
           sodipodi:end="2.5544728"
           sodipodi:open="true"
           sodipodi:arc-type="arc"
           d="M 45.405022,-94.097244 A 21.40641,21.40641 0 0 1 30.192806,-73.606604 21.40641,21.40641 0 0 1 6.1769266,-82.238832"
           transform="rotate(135)" />
        <path
           id="path30"
           style="color:#000000;fill:#5f8dff;-inkscape-stroke:none"
           d="m 53.046891,62.382756 -0.574642,3.093351 a 18.186964,18.186964 0 0 1 1.481047,0.241329 l 0.568441,-3.061312 z m 11.457182,5.382617 -2.314587,2.314587 a 18.186964,18.186964 0 0 1 0.568957,0.492993 18.186964,18.186964 0 0 1 0.517798,0.543636 l 2.2903,-2.290299 z" />
        <path
           id="path31"
           style="color:#000000;fill:#5f8dff;-inkscape-stroke:none"
           d="m 36.445321,95.609151 -2.540931,2.498039 1.052649,1.070736 2.534729,-2.491838 a 18.186964,18.186964 0 0 1 -0.453202,-0.392741 18.186964,18.186964 0 0 1 -0.593245,-0.684196 z m 9.144661,5.465819 -0.642855,3.19825 1.470712,0.29507 0.645955,-3.2153 a 18.186964,18.186964 0 0 1 -1.473812,-0.27802 z" />
      </g>
      <path
         style="opacity:1;fill:none;fill-opacity:1;stroke:#5f8dff;stroke-width:3;stroke-linecap:square;stroke-dasharray:none;stroke-opacity:1"
         d="M 43.798478,83.433226 H 15.223501"
         id="path32" />
      <path
         style="opacity:1;fill:none;fill-opacity:1;stroke:#5f8dff;stroke-width:3;stroke-linecap:square;stroke-dasharray:none;stroke-opacity:1"
         d="M 84.24222,83.433226 H 55.667243"
         id="path33" />
    </g>
    <g
       id="g45"
       style="filter:url(#filter33)">
      <circle
         style="opacity:1;fill:#000000;fill-opacity:0;stroke:#5f8dff;stroke-width:1.5;stroke-linecap:butt;stroke-dasharray:none;stroke-opacity:1"
         id="circle33"
         transform="rotate(-45)"
         cx="-23.712631"
         cy="94.27977"
         r="12.824402" />
      <g
         id="g37"
         transform="rotate(-27.594213,49.73286,83.469804)">
        <path
           style="opacity:1;fill:#000000;fill-opacity:0;stroke:#5f8dff;stroke-width:1.5;stroke-linecap:square;stroke-dasharray:none;stroke-opacity:1"
           id="path34"
           sodipodi:type="arc"
           sodipodi:cx="-23.712631"
           sodipodi:cy="94.27977"
           sodipodi:rx="21.40641"
           sodipodi:ry="21.40641"
           sodipodi:start="0"
           sodipodi:end="2.5544728"
           sodipodi:open="true"
           sodipodi:arc-type="arc"
           d="m -2.306221,94.27977 a 21.40641,21.40641 0 0 1 -15.212215,20.49064 21.40641,21.40641 0 0 1 -24.01588,-8.63223"
           transform="rotate(-45)" />
        <path
           style="opacity:1;fill:#000000;fill-opacity:0;stroke:#5f8dff;stroke-width:1.5;stroke-linecap:square;stroke-dasharray:none;stroke-opacity:1"
           id="path35"
           sodipodi:type="arc"
           sodipodi:cx="23.998611"
           sodipodi:cy="-94.097244"
           sodipodi:rx="21.40641"
           sodipodi:ry="21.40641"
           sodipodi:start="0"
           sodipodi:end="2.5544728"
           sodipodi:open="true"
           sodipodi:arc-type="arc"
           d="M 45.405022,-94.097244 A 21.40641,21.40641 0 0 1 30.192806,-73.606604 21.40641,21.40641 0 0 1 6.1769266,-82.238832"
           transform="rotate(135)" />
        <path
           id="path36"
           style="color:#000000;fill:#5f8dff;-inkscape-stroke:none"
           d="m 53.046891,62.382756 -0.574642,3.093351 a 18.186964,18.186964 0 0 1 1.481047,0.241329 l 0.568441,-3.061312 z m 11.457182,5.382617 -2.314587,2.314587 a 18.186964,18.186964 0 0 1 0.568957,0.492993 18.186964,18.186964 0 0 1 0.517798,0.543636 l 2.2903,-2.290299 z" />
        <path
           id="path37"
           style="color:#000000;fill:#5f8dff;-inkscape-stroke:none"
           d="m 36.445321,95.609151 -2.540931,2.498039 1.052649,1.070736 2.534729,-2.491838 a 18.186964,18.186964 0 0 1 -0.453202,-0.392741 18.186964,18.186964 0 0 1 -0.593245,-0.684196 z m 9.144661,5.465819 -0.642855,3.19825 1.470712,0.29507 0.645955,-3.2153 a 18.186964,18.186964 0 0 1 -1.473812,-0.27802 z" />
      </g>
      <path
         style="opacity:1;fill:none;fill-opacity:1;stroke:#5f8dff;stroke-width:3;stroke-linecap:square;stroke-dasharray:none;stroke-opacity:1"
         d="M 43.798478,83.433226 H 15.223501"
         id="path38" />
      <path
         style="opacity:1;fill:none;fill-opacity:1;stroke:#5f8dff;stroke-width:3;stroke-linecap:square;stroke-dasharray:none;stroke-opacity:1"
         d="M 84.24222,83.433226 H 55.667243"
         id="path39" />
      <circle
         style="opacity:1;fill:#000000;fill-opacity:0;stroke:#5f8dff;stroke-width:1.5;stroke-linecap:butt;stroke-dasharray:none;stroke-opacity:1"
         id="circle39"
         transform="rotate(-45)"
         cx="-23.712631"
         cy="94.27977"
         r="12.824402" />
      <g
         id="g43"
         transform="rotate(-27.594213,49.73286,83.469804)">
        <path
           style="opacity:1;fill:#000000;fill-opacity:0;stroke:#5f8dff;stroke-width:1.5;stroke-linecap:square;stroke-dasharray:none;stroke-opacity:1"
           id="path40"
           sodipodi:type="arc"
           sodipodi:cx="-23.712631"
           sodipodi:cy="94.27977"
           sodipodi:rx="21.40641"
           sodipodi:ry="21.40641"
           sodipodi:start="0"
           sodipodi:end="2.5544728"
           sodipodi:open="true"
           sodipodi:arc-type="arc"
           d="m -2.306221,94.27977 a 21.40641,21.40641 0 0 1 -15.212215,20.49064 21.40641,21.40641 0 0 1 -24.01588,-8.63223"
           transform="rotate(-45)" />
        <path
           style="opacity:1;fill:#000000;fill-opacity:0;stroke:#5f8dff;stroke-width:1.5;stroke-linecap:square;stroke-dasharray:none;stroke-opacity:1"
           id="path41"
           sodipodi:type="arc"
           sodipodi:cx="23.998611"
           sodipodi:cy="-94.097244"
           sodipodi:rx="21.40641"
           sodipodi:ry="21.40641"
           sodipodi:start="0"
           sodipodi:end="2.5544728"
           sodipodi:open="true"
           sodipodi:arc-type="arc"
           d="M 45.405022,-94.097244 A 21.40641,21.40641 0 0 1 30.192806,-73.606604 21.40641,21.40641 0 0 1 6.1769266,-82.238832"
           transform="rotate(135)" />
        <path
           id="path42"
           style="color:#000000;fill:#5f8dff;-inkscape-stroke:none"
           d="m 53.046891,62.382756 -0.574642,3.093351 a 18.186964,18.186964 0 0 1 1.481047,0.241329 l 0.568441,-3.061312 z m 11.457182,5.382617 -2.314587,2.314587 a 18.186964,18.186964 0 0 1 0.568957,0.492993 18.186964,18.186964 0 0 1 0.517798,0.543636 l 2.2903,-2.290299 z" />
        <path
           id="path43"
           style="color:#000000;fill:#5f8dff;-inkscape-stroke:none"
           d="m 36.445321,95.609151 -2.540931,2.498039 1.052649,1.070736 2.534729,-2.491838 a 18.186964,18.186964 0 0 1 -0.453202,-0.392741 18.186964,18.186964 0 0 1 -0.593245,-0.684196 z m 9.144661,5.465819 -0.642855,3.19825 1.470712,0.29507 0.645955,-3.2153 a 18.186964,18.186964 0 0 1 -1.473812,-0.27802 z" />
      </g>
      <path
         style="opacity:1;fill:none;fill-opacity:1;stroke:#5f8dff;stroke-width:3;stroke-linecap:square;stroke-dasharray:none;stroke-opacity:1"
         d="M 43.798478,83.433226 H 15.223501"
         id="path44" />
      <path
         style="opacity:1;fill:none;fill-opacity:1;stroke:#5f8dff;stroke-width:3;stroke-linecap:square;stroke-dasharray:none;stroke-opacity:1"
         d="M 84.24222,83.433226 H 55.667243"
         id="path45" />
    </g>
    <text
       xml:space="preserve"
       style="font-weight:bold;font-size:7.05556px;line-height:10.7421px;font-family:Cantarell;-inkscape-font-specification:'Cantarell Bold';fill:#000000;fill-opacity:1;stroke:none;stroke-width:3;stroke-linecap:square"
       x="13.723501"
       y="44.130436"
       id="text1"><tspan
         sodipodi:role="line"
         id="tspan1"
         style="fill:#ffffff;fill-opacity:1;stroke:none;stroke-width:3;stroke-opacity:1"
         x="13.723501"
         y="44.130436">V1</tspan></text>
    <text
       xml:space="preserve"
       style="font-weight:bold;font-size:7.05556px;line-height:10.7421px;font-family:Cantarell;-inkscape-font-specification:'Cantarell Bold';fill:#ffffff;fill-opacity:1;stroke:none;stroke-width:3;stroke-linecap:square;stroke-opacity:1"
       x="169.14534"
       y="66.253983"
       id="text2"><tspan
         sodipodi:role="line"
         id="tspan2"
         style="stroke-width:3"
         x="169.14534"
         y="66.253983" /></text>
    <rect
       style="fill:#000000;fill-opacity:1;stroke:none;stroke-width:3;stroke-linecap:square"
       id="rect2"
       width="113.91305"
       height="274.17392"
       x="92.599907"
       y="22.826088"
       inkscape:label="background"
       sodipodi:insensitive="true" />
    <g
       id="g81"
       style="fill:#ffffff;fill-opacity:1">
      <path
         style="color:#000000;fill:#ffffff;-inkscape-stroke:none;fill-opacity:1"
         d="m -23.712891,80.705078 c -7.488044,0 -13.574218,6.086175 -13.574218,13.574219 0,7.488043 6.086174,13.574223 13.574218,13.574223 7.488045,0 13.574219,-6.08618 13.574219,-13.574223 0,-7.488044 -6.086174,-13.574219 -13.574219,-13.574219 z m 0,1.5 c 6.677385,0 12.074219,5.396834 12.074219,12.074219 0,6.677383 -5.396834,12.074223 -12.074219,12.074223 -6.677384,0 -12.074218,-5.39684 -12.074218,-12.074223 0,-6.677385 5.396834,-12.074219 12.074218,-12.074219 z"
         id="circle61"
         transform="rotate(-45,46.299953,-111.77797)" />
      <path
         style="color:#000000;fill:#ffffff;stroke-linecap:square;-inkscape-stroke:none;fill-opacity:1"
         d="m -16.271484,160.125 v 0.75 c 0,9.10918 -5.960205,17.13759 -14.679688,19.77344 -8.719483,2.63584 -18.127659,-0.74633 -23.173828,-8.33008 l -0.416016,-0.625 -1.248046,0.83203 0.416015,0.625 c 5.408919,8.12892 15.511128,11.75892 24.857422,8.93359 9.346294,-2.82532 15.744141,-11.44498 15.744141,-21.20898 v -0.75 z"
         id="path62"
         transform="rotate(-72.594213)" />
      <path
         style="color:#000000;fill:#ffffff;stroke-linecap:square;-inkscape-stroke:none;fill-opacity:1"
         d="m 57.869141,-161.44336 v 0.75 c 0,9.10918 -5.958252,17.13759 -14.677735,19.77344 -8.719483,2.63584 -18.129612,-0.74633 -23.175781,-8.33008 l -0.414063,-0.625 -1.25,0.83203 0.416016,0.62305 c 5.408919,8.12891 15.511128,11.76087 24.857422,8.93555 9.346294,-2.82533 15.744141,-11.44499 15.744141,-21.20899 v -0.75 z"
         id="path63"
         transform="rotate(107.40579)" />
      <path
         id="path64"
         style="color:#000000;fill:#ffffff;-inkscape-stroke:none;fill-opacity:1"
         d="m 135.50217,63.246319 0.92358,3.007661 a 18.186964,18.186964 0 0 1 1.42437,-0.472152 l -0.91424,-2.976395 z m 12.64719,-0.536695 -0.97917,3.123435 a 18.186964,18.186964 0 0 1 0.7326,0.173371 18.186964,18.186964 0 0 1 0.71071,0.24195 l 0.9689,-3.09066 z" />
      <path
         id="path65"
         style="color:#000000;fill:#ffffff;-inkscape-stroke:none;fill-opacity:1"
         d="m 136.1797,100.38318 -1.09479,3.39086 1.42888,0.46135 1.09217,-3.3825 a 18.186964,18.186964 0 0 1 -0.58357,-0.13814 18.186964,18.186964 0 0 1 -0.84269,-0.33157 z m 10.63627,0.60822 0.91172,3.13222 1.44009,-0.41974 -0.91687,-3.14877 a 18.186964,18.186964 0 0 1 -1.43494,0.43629 z" />
    </g>
    <text
       xml:space="preserve"
       style="font-weight:bold;font-size:7.05556px;line-height:10.7421px;font-family:Cantarell;-inkscape-font-specification:'Cantarell Bold';fill:#000000;fill-opacity:1;stroke:none;stroke-width:3;stroke-linecap:square"
       x="106.3234"
       y="44.130436"
       id="text73"><tspan
         sodipodi:role="line"
         id="tspan73"
         style="fill:#ffffff;fill-opacity:1;stroke:none;stroke-width:3;stroke-opacity:1"
         x="106.3234"
         y="44.130436">V2 (simplified)</tspan></text>
    <text
       xml:space="preserve"
       style="font-weight:bold;font-size:7.05556px;line-height:10.7421px;font-family:Cantarell;-inkscape-font-specification:'Cantarell Bold';fill:#ffffff;fill-opacity:1;stroke:none;stroke-width:3;stroke-linecap:square;stroke-opacity:1"
       x="261.74524"
       y="66.253983"
       id="text74"><tspan
         sodipodi:role="line"
         id="tspan74"
         style="stroke-width:3"
         x="261.74524"
         y="66.253983" /></text>
    <g
       id="g85"
       style="fill:#ffffff;fill-opacity:1;filter:url(#filter85)">
      <path
         style="color:#000000;fill:#ffffff;-inkscape-stroke:none;fill-opacity:1"
         d="m -23.712891,80.705078 c -7.488044,0 -13.574218,6.086175 -13.574218,13.574219 0,7.488043 6.086174,13.574223 13.574218,13.574223 7.488045,0 13.574219,-6.08618 13.574219,-13.574223 0,-7.488044 -6.086174,-13.574219 -13.574219,-13.574219 z m 0,1.5 c 6.677385,0 12.074219,5.396834 12.074219,12.074219 0,6.677383 -5.396834,12.074223 -12.074219,12.074223 -6.677384,0 -12.074218,-5.39684 -12.074218,-12.074223 0,-6.677385 5.396834,-12.074219 12.074218,-12.074219 z"
         id="path81"
         transform="rotate(-45,46.299953,-111.77797)" />
      <path
         style="color:#000000;fill:#ffffff;stroke-linecap:square;-inkscape-stroke:none;fill-opacity:1"
         d="m -16.271484,160.125 v 0.75 c 0,9.10918 -5.960205,17.13759 -14.679688,19.77344 -8.719483,2.63584 -18.127659,-0.74633 -23.173828,-8.33008 l -0.416016,-0.625 -1.248046,0.83203 0.416015,0.625 c 5.408919,8.12892 15.511128,11.75892 24.857422,8.93359 9.346294,-2.82532 15.744141,-11.44498 15.744141,-21.20898 v -0.75 z"
         id="path82"
         transform="rotate(-72.594213)" />
      <path
         style="color:#000000;fill:#ffffff;stroke-linecap:square;-inkscape-stroke:none;fill-opacity:1"
         d="m 57.869141,-161.44336 v 0.75 c 0,9.10918 -5.958252,17.13759 -14.677735,19.77344 -8.719483,2.63584 -18.129612,-0.74633 -23.175781,-8.33008 l -0.414063,-0.625 -1.25,0.83203 0.416016,0.62305 c 5.408919,8.12891 15.511128,11.76087 24.857422,8.93555 9.346294,-2.82533 15.744141,-11.44499 15.744141,-21.20899 v -0.75 z"
         id="path83"
         transform="rotate(107.40579)" />
      <path
         id="path84"
         style="color:#000000;fill:#ffffff;-inkscape-stroke:none;fill-opacity:1"
         d="m 135.50217,63.246319 0.92358,3.007661 a 18.186964,18.186964 0 0 1 1.42437,-0.472152 l -0.91424,-2.976395 z m 12.64719,-0.536695 -0.97917,3.123435 a 18.186964,18.186964 0 0 1 0.7326,0.173371 18.186964,18.186964 0 0 1 0.71071,0.24195 l 0.9689,-3.09066 z" />
      <path
         id="path85"
         style="color:#000000;fill:#ffffff;-inkscape-stroke:none;fill-opacity:1"
         d="m 136.1797,100.38318 -1.09479,3.39086 1.42888,0.46135 1.09217,-3.3825 a 18.186964,18.186964 0 0 1 -0.58357,-0.13814 18.186964,18.186964 0 0 1 -0.84269,-0.33157 z m 10.63627,0.60822 0.91172,3.13222 1.44009,-0.41974 -0.91687,-3.14877 a 18.186964,18.186964 0 0 1 -1.43494,0.43629 z" />
    </g>
    <g
       id="g90"
       style="fill:#ffffff;fill-opacity:1;filter:url(#filter85)">
      <path
         style="color:#000000;fill:#ffffff;-inkscape-stroke:none;fill-opacity:1"
         d="m -23.712891,80.705078 c -7.488044,0 -13.574218,6.086175 -13.574218,13.574219 0,7.488043 6.086174,13.574223 13.574218,13.574223 7.488045,0 13.574219,-6.08618 13.574219,-13.574223 0,-7.488044 -6.086174,-13.574219 -13.574219,-13.574219 z m 0,1.5 c 6.677385,0 12.074219,5.396834 12.074219,12.074219 0,6.677383 -5.396834,12.074223 -12.074219,12.074223 -6.677384,0 -12.074218,-5.39684 -12.074218,-12.074223 0,-6.677385 5.396834,-12.074219 12.074218,-12.074219 z"
         id="path86"
         transform="rotate(-45,46.299953,-111.77797)" />
      <path
         style="color:#000000;fill:#ffffff;stroke-linecap:square;-inkscape-stroke:none;fill-opacity:1"
         d="m -16.271484,160.125 v 0.75 c 0,9.10918 -5.960205,17.13759 -14.679688,19.77344 -8.719483,2.63584 -18.127659,-0.74633 -23.173828,-8.33008 l -0.416016,-0.625 -1.248046,0.83203 0.416015,0.625 c 5.408919,8.12892 15.511128,11.75892 24.857422,8.93359 9.346294,-2.82532 15.744141,-11.44498 15.744141,-21.20898 v -0.75 z"
         id="path87"
         transform="rotate(-72.594213)" />
      <path
         style="color:#000000;fill:#ffffff;stroke-linecap:square;-inkscape-stroke:none;fill-opacity:1"
         d="m 57.869141,-161.44336 v 0.75 c 0,9.10918 -5.958252,17.13759 -14.677735,19.77344 -8.719483,2.63584 -18.129612,-0.74633 -23.175781,-8.33008 l -0.414063,-0.625 -1.25,0.83203 0.416016,0.62305 c 5.408919,8.12891 15.511128,11.76087 24.857422,8.93555 9.346294,-2.82533 15.744141,-11.44499 15.744141,-21.20899 v -0.75 z"
         id="path88"
         transform="rotate(107.40579)" />
      <path
         id="path89"
         style="color:#000000;fill:#ffffff;-inkscape-stroke:none;fill-opacity:1"
         d="m 135.50217,63.246319 0.92358,3.007661 a 18.186964,18.186964 0 0 1 1.42437,-0.472152 l -0.91424,-2.976395 z m 12.64719,-0.536695 -0.97917,3.123435 a 18.186964,18.186964 0 0 1 0.7326,0.173371 18.186964,18.186964 0 0 1 0.71071,0.24195 l 0.9689,-3.09066 z" />
      <path
         id="path90"
         style="color:#000000;fill:#ffffff;-inkscape-stroke:none;fill-opacity:1"
         d="m 136.1797,100.38318 -1.09479,3.39086 1.42888,0.46135 1.09217,-3.3825 a 18.186964,18.186964 0 0 1 -0.58357,-0.13814 18.186964,18.186964 0 0 1 -0.84269,-0.33157 z m 10.63627,0.60822 0.91172,3.13222 1.44009,-0.41974 -0.91687,-3.14877 a 18.186964,18.186964 0 0 1 -1.43494,0.43629 z" />
    </g>
    <g
       id="g51"
       inkscape:export-filename="./sector_map_targeting_reticle_past.png"
       inkscape:export-xdpi="300"
       inkscape:export-ydpi="300">
      <path
         style="color:#000000;fill:#ffffff;fill-opacity:1;stroke-width:1;-inkscape-stroke:none"
         d="m 47.019392,143.81913 c -1.587858,1.58785 -1.587858,4.16903 0,5.75688 1.587858,1.58786 4.169035,1.58786 5.756892,1e-5 1.587858,-1.58786 1.587857,-4.16904 -10e-7,-5.75689 -1.587857,-1.58786 -4.169033,-1.58786 -5.756891,0 z m 0.623575,0.62357 c 1.247008,-1.247 3.262734,-1.247 4.50974,0 1.247008,1.24701 1.247009,3.26273 2e-6,4.50974 -1.247008,1.247 -3.262734,1.247 -4.509741,-1e-5 -1.247008,-1.247 -1.247008,-3.26272 -1e-6,-4.50973 z"
         id="path46"
         sodipodi:nodetypes="ssssssssss" />
      <path
         style="color:#000000;fill:url(#radialGradient51);stroke-width:0.999998;-inkscape-stroke:none"
         d="m 44.129611,140.92935 c -3.181968,3.18197 -3.181967,8.35448 1e-6,11.53644 3.181968,3.18197 8.354485,3.18197 11.536452,1e-5 3.181968,-3.18197 3.181965,-8.35448 -2e-6,-11.53645 -3.181967,-3.18197 -8.354482,-3.18197 -11.536451,0 z"
         id="path46-3"
         sodipodi:nodetypes="sssss" />
      <path
         style="color:#000000;fill:#ffffff;fill-opacity:1;stroke-width:1;-inkscape-stroke:none;filter:url(#filter51)"
         d="m 47.019392,143.81913 c -1.587858,1.58785 -1.587858,4.16903 0,5.75688 1.587858,1.58786 4.169035,1.58786 5.756892,1e-5 1.587858,-1.58786 1.587857,-4.16904 -10e-7,-5.75689 -1.587857,-1.58786 -4.169033,-1.58786 -5.756891,0 z m 0.623575,0.62357 c 1.247008,-1.247 3.262734,-1.247 4.50974,0 1.247008,1.24701 1.247009,3.26273 2e-6,4.50974 -1.247008,1.247 -3.262734,1.247 -4.509741,-1e-5 -1.247008,-1.247 -1.247008,-3.26272 -1e-6,-4.50973 z"
         id="path51"
         sodipodi:nodetypes="ssssssssss" />
    </g>
  </g>
</svg>
